TITLE ""
FILE "1Q_t_0310-0319.mp3" MP3
  TRACK 01 AUDIO
    TITLE "1Q_t_0310-0319_01"
    INDEX 01 00:00:00
  TRACK 02 AUDIO
    TITLE "1Q_t_0310-0319_02"
    INDEX 01 00:01:18
  TRACK 03 AUDIO
    TITLE "1Q_t_0310-0319_03"
    INDEX 01 00:01:31
  TRACK 04 AUDIO
    TITLE "1Q_t_0310-0319_04"
    INDEX 01 00:05:21
  TRACK 05 AUDIO
    TITLE "1Q_t_0310-0319_05"
    INDEX 01 00:05:35
  TRACK 06 AUDIO
    TITLE "1Q_t_0310-0319_06"
    INDEX 01 00:10:28
  TRACK 07 AUDIO
    TITLE "1Q_t_0310-0319_07"
    INDEX 01 00:11:08
  TRACK 08 AUDIO
    TITLE "1Q_t_0310-0319_08"
    INDEX 01 00:12:29
  TRACK 09 AUDIO
    TITLE "1Q_t_0310-0319_09"
    INDEX 01 00:12:45
  TRACK 10 AUDIO
    TITLE "1Q_t_0310-0319_10"
    INDEX 01 00:14:26
  TRACK 11 AUDIO
    TITLE "1Q_t_0310-0319_11"
    INDEX 01 00:14:42
  TRACK 12 AUDIO
    TITLE "1Q_t_0310-0319_12"
    INDEX 01 00:20:70
  TRACK 13 AUDIO
    TITLE "1Q_t_0310-0319_13"
    INDEX 01 00:21:50
  TRACK 14 AUDIO
    TITLE "1Q_t_0310-0319_14"
    INDEX 01 00:22:73
  TRACK 15 AUDIO
    TITLE "1Q_t_0310-0319_15"
    INDEX 01 00:23:15
  TRACK 16 AUDIO
    TITLE "1Q_t_0310-0319_16"
    INDEX 01 00:25:67
  TRACK 17 AUDIO
    TITLE "1Q_t_0310-0319_17"
    INDEX 01 00:26:06
  TRACK 18 AUDIO
    TITLE "1Q_t_0310-0319_18"
    INDEX 01 00:32:53
  TRACK 19 AUDIO
    TITLE "1Q_t_0310-0319_19"
    INDEX 01 00:33:31
  TRACK 20 AUDIO
    TITLE "1Q_t_0310-0319_20"
    INDEX 01 00:34:43
  TRACK 21 AUDIO
    TITLE "1Q_t_0310-0319_21"
    INDEX 01 00:34:58
  TRACK 22 AUDIO
    TITLE "1Q_t_0310-0319_22"
    INDEX 01 00:36:47
  TRACK 23 AUDIO
    TITLE "1Q_t_0310-0319_23"
    INDEX 01 00:36:61
  TRACK 24 AUDIO
    TITLE "1Q_t_0310-0319_24"
    INDEX 01 00:42:34
  TRACK 25 AUDIO
    TITLE "1Q_t_0310-0319_25"
    INDEX 01 00:43:14
  TRACK 26 AUDIO
    TITLE "1Q_t_0310-0319_26"
    INDEX 01 00:44:21
  TRACK 27 AUDIO
    TITLE "1Q_t_0310-0319_27"
    INDEX 01 00:44:37
  TRACK 28 AUDIO
    TITLE "1Q_t_0310-0319_28"
    INDEX 01 00:48:56
  TRACK 29 AUDIO
    TITLE "1Q_t_0310-0319_29"
    INDEX 01 00:48:70
  TRACK 30 AUDIO
    TITLE "1Q_t_0310-0319_30"
    INDEX 01 00:54:39
  TRACK 31 AUDIO
    TITLE "1Q_t_0310-0319_31"
    INDEX 01 00:55:17
  TRACK 32 AUDIO
    TITLE "1Q_t_0310-0319_32"
    INDEX 01 00:56:40
  TRACK 33 AUDIO
    TITLE "1Q_t_0310-0319_33"
    INDEX 01 00:56:54
  TRACK 34 AUDIO
    TITLE "1Q_t_0310-0319_34"
    INDEX 01 00:59:74
  TRACK 35 AUDIO
    TITLE "1Q_t_0310-0319_35"
    INDEX 01 01:00:12
  TRACK 36 AUDIO
    TITLE "1Q_t_0310-0319_36"
    INDEX 01 01:04:16
  TRACK 37 AUDIO
    TITLE "1Q_t_0310-0319_37"
    INDEX 01 01:04:69
  TRACK 38 AUDIO
    TITLE "1Q_t_0310-0319_38"
    INDEX 01 01:06:07
  TRACK 39 AUDIO
    TITLE "1Q_t_0310-0319_39"
    INDEX 01 01:06:25
  TRACK 40 AUDIO
    TITLE "1Q_t_0310-0319_40"
    INDEX 01 01:08:28
  TRACK 41 AUDIO
    TITLE "1Q_t_0310-0319_41"
    INDEX 01 01:08:41
  TRACK 42 AUDIO
    TITLE "1Q_t_0310-0319_42"
    INDEX 01 01:12:27
  TRACK 43 AUDIO
    TITLE "1Q_t_0310-0319_43"
    INDEX 01 01:13:07
  TRACK 44 AUDIO
    TITLE "1Q_t_0310-0319_44"
    INDEX 01 01:14:03
  TRACK 45 AUDIO
    TITLE "1Q_t_0310-0319_45"
    INDEX 01 01:14:17
  TRACK 46 AUDIO
    TITLE "1Q_t_0310-0319_46"
    INDEX 01 01:15:59
  TRACK 47 AUDIO
    TITLE "1Q_t_0310-0319_47"
    INDEX 01 01:16:00
  TRACK 48 AUDIO
    TITLE "1Q_t_0310-0319_48"
    INDEX 01 01:20:09
  TRACK 49 AUDIO
    TITLE "1Q_t_0310-0319_49"
    INDEX 01 01:20:64
  TRACK 50 AUDIO
    TITLE "1Q_t_0310-0319_50"
    INDEX 01 01:22:02
  TRACK 51 AUDIO
    TITLE "1Q_t_0310-0319_51"
    INDEX 01 01:22:20
  TRACK 52 AUDIO
    TITLE "1Q_t_0310-0319_52"
    INDEX 01 01:25:24
  TRACK 53 AUDIO
    TITLE "1Q_t_0310-0319_53"
    INDEX 01 01:25:42
  TRACK 54 AUDIO
    TITLE "1Q_t_0310-0319_54"
    INDEX 01 01:31:52
  TRACK 55 AUDIO
    TITLE "1Q_t_0310-0319_55"
    INDEX 01 01:32:32
  TRACK 56 AUDIO
    TITLE "1Q_t_0310-0319_56"
    INDEX 01 01:33:33
  TRACK 57 AUDIO
    TITLE "1Q_t_0310-0319_57"
    INDEX 01 01:33:47
  TRACK 58 AUDIO
    TITLE "1Q_t_0310-0319_58"
    INDEX 01 01:36:34
  TRACK 59 AUDIO
    TITLE "1Q_t_0310-0319_59"
    INDEX 01 01:36:48
  TRACK 60 AUDIO
    TITLE "1Q_t_0310-0319_60"
    INDEX 01 01:41:17
